<?xml version="1.0" encoding="utf-8"?>
<!-- Generator: Adobe Illustrator 25.0.1, SVG Export Plug-In . SVG Version: 6.00 Build 0)  -->
<svg version="1.1" id="Layer_1" xmlns="http://www.w3.org/2000/svg" xmlns:xlink="http://www.w3.org/1999/xlink" x="0px" y="0px"
	 viewBox="0 0 600 100" style="enable-background:new 0 0 600 100;" xml:space="preserve">
<style type="text/css">
	.st0{fill:#010101;}
</style>
<g>
	<path class="st0" d="M59.6,33.8c-2.8,0-5.1,0-10.9,0c-0.2,0-0.4,0-0.6,0c-5.8,0-8,0-10.9,0c-2.9,0-2.4,6.7,1.9,7.1
		c6.8,0.6,6.1-3.9,9.3-4.3c3.2,0.4,2.7,5.1,9.3,4.3C62,40.4,62.5,33.8,59.6,33.8z M40.8,38.7c-3.4,0-3.6-3.1-3.6-3.1h2.7
		c-0.1,0.2-0.2,0.4-0.2,0.6c0,0.7,0.6,1.3,1.3,1.3c0.7,0,1.3-0.6,1.3-1.3c0-0.2-0.1-0.4-0.2-0.6h2.5C44.6,35.6,44.3,38.7,40.8,38.7z
		"/>
	<polygon class="st0" points="48.8,48.6 48,48.6 42.5,48.6 40.7,51.3 48,51.3 48.8,51.3 56.1,51.3 54.3,48.6 	"/>
	<polygon class="st0" points="21.7,27.9 23.6,27.9 23.6,23.1 21.7,23.1 21.7,20.9 18.1,20.9 18.1,29.9 21.7,29.9 	"/>
	<path class="st0" d="M81.4,73.2c-2.2-3.3-5.6-5.2-8.8-6.4c-1.6-0.6-3.2-1-4.5-1.4c-1.4-0.4-2.6-0.7-3.4-1c-1.2-0.4-2.7-1.1-3.8-1.9
		c-0.5-0.4-1-0.8-1.2-1.1c-0.3-0.3-0.3-0.6-0.3-0.7v-0.4c0,0,0,0,0,0c0.4-0.3,1-0.7,1.7-1.2c0.9-0.6,2-1.5,2.6-3
		c0.3-0.8,0.6-1.8,0.9-3.1c0.2-1,0.3-2.2,0.4-3.5c0.3-0.1,0.6-0.3,0.9-0.5c0.9-0.6,1.6-1.5,2.3-2.7c0.6-1.2,1.2-2.7,1.8-4.8
		c0.3-1.1,0.4-2,0.4-2.8c0-0.9-0.2-1.8-0.6-2.4c0-0.1-0.1-0.1-0.1-0.2c0.3-3.3,1.2-14.9,1.2-17.8c0-3.4-0.8-12.4-22.5-10.6
		c-21.7-1.8-22.5,7.2-22.5,10.6c0,0.8,0.1,2.2,0.2,3.9h2.8c1.4,0,2.6,1.5,2.6,3.4s-1.1,3.4-2.6,3.4h-2.4c0.2,3,0.4,5.7,0.5,7.1
		c0,0.1-0.1,0.1-0.1,0.1c-0.4,0.7-0.6,1.5-0.6,2.4c0,0.8,0.1,1.7,0.4,2.8c0.8,2.8,1.5,4.6,2.5,5.9c0.5,0.7,1,1.2,1.6,1.6
		c0.3,0.2,0.6,0.4,0.9,0.5c0.1,1.3,0.2,2.4,0.4,3.5c0.2,1.3,0.5,2.4,0.9,3.1c0.6,1.5,1.7,2.4,2.6,3c0.7,0.5,1.3,0.9,1.7,1.2
		c0,0,0,0,0,0v0.2v0.2c0,0.2-0.1,0.4-0.3,0.7C36.8,62,36,62.6,35,63.1c-0.9,0.5-2,1-2.9,1.3c-1.1,0.4-2.9,0.8-4.8,1.4
		c-3,0.9-6.5,2.1-9.3,4.5c-1.4,1.2-2.7,2.8-3.6,4.7c-0.9,1.9-1.4,4.2-1.4,6.8c0,0.6,0,1.3,0.1,1.9c0,0.5,0.2,0.8,0.4,1.1
		c0.4,0.6,0.9,1,1.6,1.4c1.1,0.8,2.7,1.5,4.8,2.2c6.1,2.2,16.1,4.1,28.6,4.2c10.1,0,18.7-1.3,24.8-3c3.1-0.8,5.5-1.7,7.2-2.6
		c0.9-0.5,1.6-0.9,2.2-1.4c0.3-0.2,0.5-0.5,0.7-0.8c0.2-0.3,0.4-0.7,0.4-1.1c0.1-0.7,0.1-1.3,0.1-1.9C83.8,78.3,82.9,75.4,81.4,73.2
		z M48.9,69.1c-5.8,0-9.1-1.6-10.7-4.8c0.4-0.3,0.8-0.7,1.1-1.1c0.5-0.6,0.9-1.5,0.9-2.4c0,0,0,0,0,0c0,0,0,0,0,0c0-0.1,0-0.2,0-0.2
		c0-0.2,0-0.2,0-0.2c0-0.2,0-0.3,0-0.6v-0.5l-0.4-0.4c-0.8-0.9-1.8-1.4-2.5-1.9c-0.8-0.5-1.3-1.1-1.7-1.8c-0.2-0.5-0.5-1.4-0.7-2.5
		c-0.2-1.1-0.4-2.5-0.4-3.9v-1l-0.9-0.3c-0.5-0.2-0.8-0.3-1.2-0.6c-0.5-0.3-0.9-0.8-1.4-1.7c-0.5-0.9-1-2.3-1.6-4.3
		c-0.3-0.9-0.3-1.6-0.3-2.1c0-0.6,0.1-0.9,0.2-1.1c0.2-0.3,0.4-0.4,0.7-0.6c0.3-0.1,0.5-0.1,0.6-0.1l0.5,0l2.2,3.3
		c-1-17.7-0.1-20.7,2.3-21.5c4-1.4,12.7,0,12.7,0s8.8-1.4,12.7,0c1.4,0.5,2.3,1.7,2.6,6.1h-2.4v-1.7h-1.3v1.7h-2.7v-1.7h-1.3v1.7
		h-2.7v-1.7h-1.3v1.7h-2.7v-1.7h-1.3v1.7h-2.7v-1.7h-1.3v1.7h-2.7v1.3h2.7v1.7h1.3v-1.7h2.7v1.7h1.3v-1.7h2.7v1.7h1.3v-1.7h2.7v1.7
		h1.3v-1.7h2.7v1.7h1.3v-1.7h2.5c0.1,3.2,0,7.7-0.4,14.2l2.2-3.3l0.5,0c0.1,0,0.5,0,0.8,0.2c0.2,0.1,0.3,0.2,0.4,0.4
		c0.1,0.2,0.2,0.6,0.2,1.1c0,0.5-0.1,1.2-0.3,2.1c-0.8,2.7-1.4,4.2-2.1,5.1c-0.3,0.4-0.6,0.7-0.9,0.9c-0.3,0.2-0.7,0.4-1.2,0.6
		l-0.9,0.3v1c0,1.4-0.2,2.8-0.4,3.9c-0.2,1.1-0.5,2.1-0.7,2.5c-0.3,0.8-0.9,1.3-1.7,1.8c-0.8,0.5-1.7,1-2.5,1.9l-0.4,0.4v0.5
		c0,0.3,0,0.5,0,0.6c0,0.1,0,0.2,0,0.2c0,0.1,0,0.2,0,0.2c0,0,0,0,0,0c0,0,0,0,0,0c0,0.9,0.4,1.7,0.9,2.4c0.5,0.7,1.2,1.2,1.9,1.7
		C57.7,67.7,54.4,69.1,48.9,69.1z"/>
	<path class="st0" d="M30.5,25.5c0-1.3-0.7-2.4-1.6-2.4h-0.6v4.8h0.6C29.8,27.9,30.5,26.8,30.5,25.5z"/>
	<rect x="24.8" y="23.1" class="st0" width="2.3" height="4.8"/>
</g>
<g>
	<path d="M107.5,17.8h41.9v12.1h-28.2V45h25.9v12.1h-25.9v25.8h-13.8V17.8z"/>
	<path d="M156.9,18.4c1.5-0.2,3.1-0.5,4.9-0.7c1.8-0.2,3.5-0.4,5.3-0.5c1.8-0.1,3.5-0.2,5.3-0.3c1.7-0.1,3.3-0.1,4.7-0.1
		c3.3,0,6.5,0.3,9.7,0.8c3.2,0.6,6,1.5,8.6,2.9c2.5,1.4,4.5,3.2,6.1,5.6c1.5,2.4,2.3,5.4,2.3,9c0,5.3-1.3,9.7-4,13.2
		c-2.6,3.4-6.3,5.8-10.9,7l4.9,2.9l16.3,24.6h-16l-16.2-25.2l-7.3-1.1v26.3h-13.8V18.4z M178,28.9c-1.4,0-2.8,0-4.1,0
		c-1.3,0-2.4,0.1-3.2,0.3v17.9h5.9c3.9,0,7-0.7,9.3-2.2c2.3-1.5,3.4-4.1,3.4-7.7c0-2.7-1-4.8-2.9-6.2
		C184.4,29.6,181.6,28.9,178,28.9z"/>
	<path d="M256.1,69h-21.9l-5.3,13.9h-13.8l25.5-65.6h10.1l25.6,65.6h-14.6L256.1,69z M238,58.1h14.9l-5-13.6l-2.2-10.3h-0.5
		l-2.2,10.4L238,58.1z"/>
	<path d="M299.9,48.9l-5.6-9.8h-0.5l1.5,9.9v33.9h-13V17.3h10L319.2,52l5.3,9.5h0.6l-1.5-9.6V17.8h13v65.6h-10L299.9,48.9z"/>
	<path d="M362.3,55.3h-3.6v27.5h-13.8V17.8h13.8v28.6L362,45l19.5-27.2h15.7L376.6,45l-5.4,3.5l5.6,3.7l23.6,30.6h-17L362.3,55.3z"
		/>
</g>
<g>
</g>
<g>
</g>
<g>
</g>
<g>
</g>
<g>
</g>
<g>
</g>
</svg>
